<mxfile host="app.diagrams.net" agent="Mozilla/5.0 (Windows NT 10.0; Win64; x64) AppleWebKit/537.36 (KHTML, like Gecko) Chrome/133.0.0.0 Safari/537.36" version="26.0.14">
  <diagram name="Página-1" id="gkabTDwneS-zD0Lh52lw">
    <mxGraphModel dx="-1431" dy="1734" grid="1" gridSize="10" guides="1" tooltips="1" connect="1" arrows="1" fold="1" page="1" pageScale="1" pageWidth="827" pageHeight="1169" math="0" shadow="0">
      <root>
        <mxCell id="0" />
        <mxCell id="1" parent="0" />
        <mxCell id="I6lH12Wh9Lbn3AllXZ_X-6" style="edgeStyle=orthogonalEdgeStyle;rounded=0;orthogonalLoop=1;jettySize=auto;html=1;exitX=0.5;exitY=1;exitDx=0;exitDy=0;" parent="1" source="I6lH12Wh9Lbn3AllXZ_X-1" target="I6lH12Wh9Lbn3AllXZ_X-5" edge="1">
          <mxGeometry relative="1" as="geometry" />
        </mxCell>
        <mxCell id="I6lH12Wh9Lbn3AllXZ_X-1" value="inicio&lt;div&gt;&lt;br&gt;&lt;/div&gt;" style="ellipse;whiteSpace=wrap;html=1;fillColor=#008a00;strokeColor=#005700;fontColor=#ffffff;" parent="1" vertex="1">
          <mxGeometry x="2740" y="-370" width="90" height="60" as="geometry" />
        </mxCell>
        <mxCell id="I6lH12Wh9Lbn3AllXZ_X-9" style="edgeStyle=orthogonalEdgeStyle;rounded=0;orthogonalLoop=1;jettySize=auto;html=1;exitX=0.5;exitY=1;exitDx=0;exitDy=0;" parent="1" source="I6lH12Wh9Lbn3AllXZ_X-5" target="I6lH12Wh9Lbn3AllXZ_X-8" edge="1">
          <mxGeometry relative="1" as="geometry" />
        </mxCell>
        <mxCell id="I6lH12Wh9Lbn3AllXZ_X-5" value="recebe&amp;nbsp;&lt;div&gt;1° numero&lt;/div&gt;" style="shape=parallelogram;perimeter=parallelogramPerimeter;whiteSpace=wrap;html=1;fixedSize=1;fillColor=#0050ef;fontColor=#ffffff;strokeColor=#001DBC;" parent="1" vertex="1">
          <mxGeometry x="2740" y="-220" width="90" height="60" as="geometry" />
        </mxCell>
        <mxCell id="I6lH12Wh9Lbn3AllXZ_X-12" style="edgeStyle=orthogonalEdgeStyle;rounded=0;orthogonalLoop=1;jettySize=auto;html=1;" parent="1" source="I6lH12Wh9Lbn3AllXZ_X-8" target="I6lH12Wh9Lbn3AllXZ_X-11" edge="1">
          <mxGeometry relative="1" as="geometry" />
        </mxCell>
        <mxCell id="I6lH12Wh9Lbn3AllXZ_X-8" value="recebe&amp;nbsp;&lt;div&gt;2° numero&lt;/div&gt;" style="shape=parallelogram;perimeter=parallelogramPerimeter;whiteSpace=wrap;html=1;fixedSize=1;fillColor=#0050ef;fontColor=#ffffff;strokeColor=#001DBC;" parent="1" vertex="1">
          <mxGeometry x="2740" y="-100" width="90" height="60" as="geometry" />
        </mxCell>
        <mxCell id="I6lH12Wh9Lbn3AllXZ_X-14" style="edgeStyle=orthogonalEdgeStyle;rounded=0;orthogonalLoop=1;jettySize=auto;html=1;" parent="1" source="I6lH12Wh9Lbn3AllXZ_X-11" target="I6lH12Wh9Lbn3AllXZ_X-13" edge="1">
          <mxGeometry relative="1" as="geometry" />
        </mxCell>
        <mxCell id="I6lH12Wh9Lbn3AllXZ_X-11" value="Realizar soma dos&amp;nbsp;&lt;div&gt;n° obitidos&lt;/div&gt;&lt;div&gt;&lt;br&gt;&lt;/div&gt;" style="rounded=1;whiteSpace=wrap;html=1;fillColor=#e51400;fontColor=#ffffff;strokeColor=#B20000;" parent="1" vertex="1">
          <mxGeometry x="2717.5" y="50" width="135" height="80" as="geometry" />
        </mxCell>
        <mxCell id="I6lH12Wh9Lbn3AllXZ_X-13" value="Fim&lt;div&gt;&lt;br&gt;&lt;/div&gt;" style="ellipse;whiteSpace=wrap;html=1;fillColor=#e51400;fontColor=#ffffff;strokeColor=#B20000;" parent="1" vertex="1">
          <mxGeometry x="2725" y="210" width="120" height="80" as="geometry" />
        </mxCell>
        <mxCell id="I6lH12Wh9Lbn3AllXZ_X-17" style="edgeStyle=orthogonalEdgeStyle;rounded=0;orthogonalLoop=1;jettySize=auto;html=1;entryX=0.5;entryY=0;entryDx=0;entryDy=0;" parent="1" source="I6lH12Wh9Lbn3AllXZ_X-16" target="wrk6Vh3-xpLvq20yZKuH-2" edge="1">
          <mxGeometry relative="1" as="geometry">
            <mxPoint x="3610" y="2.4000244140625" as="targetPoint" />
          </mxGeometry>
        </mxCell>
        <mxCell id="I6lH12Wh9Lbn3AllXZ_X-16" value="Inicio&lt;div&gt;&lt;br&gt;&lt;/div&gt;" style="ellipse;whiteSpace=wrap;html=1;fillColor=#e51400;fontColor=#ffffff;strokeColor=#B20000;" parent="1" vertex="1">
          <mxGeometry x="3550" y="-380" width="120" height="80" as="geometry" />
        </mxCell>
        <mxCell id="wrk6Vh3-xpLvq20yZKuH-6" style="edgeStyle=orthogonalEdgeStyle;rounded=0;orthogonalLoop=1;jettySize=auto;html=1;" parent="1" source="wrk6Vh3-xpLvq20yZKuH-2" target="wrk6Vh3-xpLvq20yZKuH-4" edge="1">
          <mxGeometry relative="1" as="geometry" />
        </mxCell>
        <mxCell id="wrk6Vh3-xpLvq20yZKuH-2" value="&lt;div&gt;&lt;br&gt;&lt;/div&gt;&lt;div&gt;Obtenha um numero&amp;nbsp;&lt;/div&gt;" style="shape=parallelogram;perimeter=parallelogramPerimeter;whiteSpace=wrap;html=1;fixedSize=1;fillColor=#d5e8d4;strokeColor=#82b366;" parent="1" vertex="1">
          <mxGeometry x="3530" y="-200" width="160" height="90" as="geometry" />
        </mxCell>
        <mxCell id="wrk6Vh3-xpLvq20yZKuH-10" style="edgeStyle=orthogonalEdgeStyle;rounded=0;orthogonalLoop=1;jettySize=auto;html=1;" parent="1" source="wrk6Vh3-xpLvq20yZKuH-4" target="wrk6Vh3-xpLvq20yZKuH-9" edge="1">
          <mxGeometry relative="1" as="geometry" />
        </mxCell>
        <mxCell id="wrk6Vh3-xpLvq20yZKuH-15" style="edgeStyle=orthogonalEdgeStyle;rounded=0;orthogonalLoop=1;jettySize=auto;html=1;exitX=0.5;exitY=1;exitDx=0;exitDy=0;" parent="1" source="wrk6Vh3-xpLvq20yZKuH-4" edge="1">
          <mxGeometry relative="1" as="geometry">
            <mxPoint x="3600" y="129.99999999999955" as="targetPoint" />
          </mxGeometry>
        </mxCell>
        <mxCell id="wrk6Vh3-xpLvq20yZKuH-4" value="Obtenha o dobro do numero&lt;div&gt;&lt;br&gt;&lt;/div&gt;" style="rounded=1;whiteSpace=wrap;html=1;fillColor=#e1d5e7;strokeColor=#9673a6;" parent="1" vertex="1">
          <mxGeometry x="3515" y="30" width="190" height="90" as="geometry" />
        </mxCell>
        <mxCell id="wrk6Vh3-xpLvq20yZKuH-12" style="edgeStyle=orthogonalEdgeStyle;rounded=0;orthogonalLoop=1;jettySize=auto;html=1;" parent="1" source="wrk6Vh3-xpLvq20yZKuH-9" target="wrk6Vh3-xpLvq20yZKuH-11" edge="1">
          <mxGeometry relative="1" as="geometry" />
        </mxCell>
        <mxCell id="wrk6Vh3-xpLvq20yZKuH-9" value="Calcule o dobro do numero&lt;div&gt;&lt;br&gt;&lt;/div&gt;" style="rounded=1;whiteSpace=wrap;html=1;fillColor=#fff2cc;strokeColor=#d6b656;" parent="1" vertex="1">
          <mxGeometry x="3515" y="230" width="190" height="90" as="geometry" />
        </mxCell>
        <mxCell id="wrk6Vh3-xpLvq20yZKuH-14" style="edgeStyle=orthogonalEdgeStyle;rounded=0;orthogonalLoop=1;jettySize=auto;html=1;" parent="1" source="wrk6Vh3-xpLvq20yZKuH-11" target="wrk6Vh3-xpLvq20yZKuH-13" edge="1">
          <mxGeometry relative="1" as="geometry" />
        </mxCell>
        <mxCell id="wrk6Vh3-xpLvq20yZKuH-11" value="&lt;div&gt;Calcule a metade do numero&lt;/div&gt;&lt;div&gt;&lt;br&gt;&lt;/div&gt;" style="rounded=1;whiteSpace=wrap;html=1;fillColor=#fff2cc;strokeColor=#d6b656;" parent="1" vertex="1">
          <mxGeometry x="3515" y="539" width="190" height="90" as="geometry" />
        </mxCell>
        <mxCell id="wrk6Vh3-xpLvq20yZKuH-13" value="&lt;div&gt;Fim&lt;/div&gt;&lt;div&gt;&lt;br&gt;&lt;/div&gt;" style="ellipse;whiteSpace=wrap;html=1;fillColor=#e51400;fontColor=#ffffff;strokeColor=#B20000;" parent="1" vertex="1">
          <mxGeometry x="3550" y="870" width="120" height="80" as="geometry" />
        </mxCell>
        <mxCell id="_w_shHprdRN83o-UDw5u-5" style="edgeStyle=orthogonalEdgeStyle;rounded=0;orthogonalLoop=1;jettySize=auto;html=1;" parent="1" source="_w_shHprdRN83o-UDw5u-1" target="_w_shHprdRN83o-UDw5u-4" edge="1">
          <mxGeometry relative="1" as="geometry" />
        </mxCell>
        <mxCell id="_w_shHprdRN83o-UDw5u-1" value="inicio" style="ellipse;whiteSpace=wrap;html=1;fillColor=#fad7ac;strokeColor=#b46504;" parent="1" vertex="1">
          <mxGeometry x="3130" y="-390" width="120" height="80" as="geometry" />
        </mxCell>
        <mxCell id="_w_shHprdRN83o-UDw5u-10" style="edgeStyle=orthogonalEdgeStyle;rounded=0;orthogonalLoop=1;jettySize=auto;html=1;exitX=0.5;exitY=1;exitDx=0;exitDy=0;entryX=0.5;entryY=0;entryDx=0;entryDy=0;" parent="1" source="_w_shHprdRN83o-UDw5u-4" target="_w_shHprdRN83o-UDw5u-6" edge="1">
          <mxGeometry relative="1" as="geometry" />
        </mxCell>
        <mxCell id="_w_shHprdRN83o-UDw5u-4" value="Obtenha um numero&lt;div&gt;&lt;br&gt;&lt;/div&gt;" style="shape=trapezoid;perimeter=trapezoidPerimeter;whiteSpace=wrap;html=1;fixedSize=1;fillColor=#fad7ac;strokeColor=#b46504;" parent="1" vertex="1">
          <mxGeometry x="3130" y="-190" width="120" height="50" as="geometry" />
        </mxCell>
        <mxCell id="_w_shHprdRN83o-UDw5u-13" style="edgeStyle=orthogonalEdgeStyle;rounded=0;orthogonalLoop=1;jettySize=auto;html=1;" parent="1" source="_w_shHprdRN83o-UDw5u-6" target="_w_shHprdRN83o-UDw5u-11" edge="1">
          <mxGeometry relative="1" as="geometry" />
        </mxCell>
        <mxCell id="_w_shHprdRN83o-UDw5u-16" value="" style="edgeStyle=orthogonalEdgeStyle;rounded=0;orthogonalLoop=1;jettySize=auto;html=1;" parent="1" source="_w_shHprdRN83o-UDw5u-6" target="_w_shHprdRN83o-UDw5u-12" edge="1">
          <mxGeometry relative="1" as="geometry" />
        </mxCell>
        <mxCell id="_w_shHprdRN83o-UDw5u-6" value="Impar Ou Par?" style="rhombus;whiteSpace=wrap;html=1;fillColor=#fad7ac;strokeColor=#b46504;" parent="1" vertex="1">
          <mxGeometry x="3125" y="-30" width="130" height="100" as="geometry" />
        </mxCell>
        <mxCell id="_w_shHprdRN83o-UDw5u-11" value="Numero par" style="ellipse;whiteSpace=wrap;html=1;fillColor=#fad7ac;strokeColor=#b46504;" parent="1" vertex="1">
          <mxGeometry x="2970" y="80" width="120" height="80" as="geometry" />
        </mxCell>
        <mxCell id="_w_shHprdRN83o-UDw5u-12" value="Numero impar&lt;div&gt;&lt;br&gt;&lt;/div&gt;" style="ellipse;whiteSpace=wrap;html=1;fillColor=#fad7ac;strokeColor=#b46504;" parent="1" vertex="1">
          <mxGeometry x="3290" y="90" width="120" height="80" as="geometry" />
        </mxCell>
        <mxCell id="_w_shHprdRN83o-UDw5u-17" value="Inicio" style="ellipse;whiteSpace=wrap;html=1;fillColor=#b1ddf0;strokeColor=#10739e;" parent="1" vertex="1">
          <mxGeometry x="4060" y="-390" width="120" height="80" as="geometry" />
        </mxCell>
        <mxCell id="_w_shHprdRN83o-UDw5u-21" style="edgeStyle=orthogonalEdgeStyle;rounded=0;orthogonalLoop=1;jettySize=auto;html=1;exitX=0.5;exitY=1;exitDx=0;exitDy=0;entryX=0.5;entryY=0;entryDx=0;entryDy=0;" parent="1" source="_w_shHprdRN83o-UDw5u-18" target="_w_shHprdRN83o-UDw5u-19" edge="1">
          <mxGeometry relative="1" as="geometry" />
        </mxCell>
        <mxCell id="_w_shHprdRN83o-UDw5u-18" value="Obter a Idade da pessoa&lt;div&gt;&lt;br&gt;&lt;/div&gt;" style="shape=parallelogram;perimeter=parallelogramPerimeter;whiteSpace=wrap;html=1;fixedSize=1;fillColor=#b1ddf0;strokeColor=#10739e;" parent="1" vertex="1">
          <mxGeometry x="4050" y="-230" width="140" height="100" as="geometry" />
        </mxCell>
        <mxCell id="_w_shHprdRN83o-UDw5u-22" style="edgeStyle=orthogonalEdgeStyle;rounded=0;orthogonalLoop=1;jettySize=auto;html=1;entryX=0.5;entryY=0;entryDx=0;entryDy=0;" parent="1" source="_w_shHprdRN83o-UDw5u-19" target="_w_shHprdRN83o-UDw5u-20" edge="1">
          <mxGeometry relative="1" as="geometry" />
        </mxCell>
        <mxCell id="oDHyd6VB_Pj6hhUdVJWZ-2" style="edgeStyle=orthogonalEdgeStyle;rounded=0;orthogonalLoop=1;jettySize=auto;html=1;" parent="1" source="_w_shHprdRN83o-UDw5u-19" target="oDHyd6VB_Pj6hhUdVJWZ-1" edge="1">
          <mxGeometry relative="1" as="geometry" />
        </mxCell>
        <mxCell id="_w_shHprdRN83o-UDw5u-19" value="Idade é&amp;gt;=18?" style="rhombus;whiteSpace=wrap;html=1;fillColor=#b1ddf0;strokeColor=#10739e;" parent="1" vertex="1">
          <mxGeometry x="3980" y="-40" width="280" height="180" as="geometry" />
        </mxCell>
        <mxCell id="_w_shHprdRN83o-UDw5u-20" value="Sim tem 18&lt;div&gt;&lt;br&gt;&lt;/div&gt;" style="shape=hexagon;perimeter=hexagonPerimeter2;whiteSpace=wrap;html=1;fixedSize=1;fillColor=#b1ddf0;strokeColor=#10739e;" parent="1" vertex="1">
          <mxGeometry x="3770" y="180" width="170" height="110" as="geometry" />
        </mxCell>
        <mxCell id="oDHyd6VB_Pj6hhUdVJWZ-1" value="Não tem 18" style="shape=hexagon;perimeter=hexagonPerimeter2;whiteSpace=wrap;html=1;fixedSize=1;fillColor=#b1ddf0;strokeColor=#10739e;" parent="1" vertex="1">
          <mxGeometry x="4320" y="180" width="170" height="110" as="geometry" />
        </mxCell>
        <mxCell id="oDHyd6VB_Pj6hhUdVJWZ-6" style="edgeStyle=orthogonalEdgeStyle;rounded=0;orthogonalLoop=1;jettySize=auto;html=1;" parent="1" source="oDHyd6VB_Pj6hhUdVJWZ-3" target="oDHyd6VB_Pj6hhUdVJWZ-5" edge="1">
          <mxGeometry relative="1" as="geometry" />
        </mxCell>
        <mxCell id="oDHyd6VB_Pj6hhUdVJWZ-3" value="&lt;div&gt;Inicio&amp;nbsp;&lt;/div&gt;" style="ellipse;whiteSpace=wrap;html=1;fillColor=#b1ddf0;strokeColor=#10739e;" parent="1" vertex="1">
          <mxGeometry x="4730" y="-390" width="120" height="80" as="geometry" />
        </mxCell>
        <mxCell id="oDHyd6VB_Pj6hhUdVJWZ-12" style="edgeStyle=orthogonalEdgeStyle;rounded=0;orthogonalLoop=1;jettySize=auto;html=1;entryX=0.5;entryY=0;entryDx=0;entryDy=0;" parent="1" source="oDHyd6VB_Pj6hhUdVJWZ-5" target="oDHyd6VB_Pj6hhUdVJWZ-7" edge="1">
          <mxGeometry relative="1" as="geometry" />
        </mxCell>
        <mxCell id="oDHyd6VB_Pj6hhUdVJWZ-5" value="Obter Temperatura&lt;div&gt;&lt;br&gt;&lt;/div&gt;" style="rounded=1;whiteSpace=wrap;html=1;fillColor=#b1ddf0;strokeColor=#10739e;" parent="1" vertex="1">
          <mxGeometry x="4700" y="-240" width="180" height="80" as="geometry" />
        </mxCell>
        <mxCell id="oDHyd6VB_Pj6hhUdVJWZ-7" value="Temp é &amp;lt;=0?" style="rhombus;whiteSpace=wrap;html=1;fillColor=#b1ddf0;strokeColor=#10739e;" parent="1" vertex="1">
          <mxGeometry x="4700" y="-80" width="180" height="100" as="geometry" />
        </mxCell>
        <mxCell id="oDHyd6VB_Pj6hhUdVJWZ-15" style="edgeStyle=orthogonalEdgeStyle;rounded=0;orthogonalLoop=1;jettySize=auto;html=1;" parent="1" source="oDHyd6VB_Pj6hhUdVJWZ-13" edge="1">
          <mxGeometry relative="1" as="geometry">
            <mxPoint x="5087" y="110" as="targetPoint" />
          </mxGeometry>
        </mxCell>
        <mxCell id="oDHyd6VB_Pj6hhUdVJWZ-13" value="Temp é &amp;lt;=100?" style="rhombus;whiteSpace=wrap;html=1;fillColor=#b1ddf0;strokeColor=#10739e;" parent="1" vertex="1">
          <mxGeometry x="4997" y="-70" width="180" height="100" as="geometry" />
        </mxCell>
        <mxCell id="oDHyd6VB_Pj6hhUdVJWZ-14" style="edgeStyle=orthogonalEdgeStyle;rounded=0;orthogonalLoop=1;jettySize=auto;html=1;entryX=0.167;entryY=0.4;entryDx=0;entryDy=0;entryPerimeter=0;" parent="1" source="oDHyd6VB_Pj6hhUdVJWZ-7" target="oDHyd6VB_Pj6hhUdVJWZ-13" edge="1">
          <mxGeometry relative="1" as="geometry" />
        </mxCell>
        <mxCell id="oDHyd6VB_Pj6hhUdVJWZ-16" value="SIM&lt;div&gt;&lt;br&gt;&lt;/div&gt;" style="text;html=1;align=center;verticalAlign=middle;resizable=0;points=[];autosize=1;strokeColor=none;fillColor=none;" parent="1" vertex="1">
          <mxGeometry x="5067" y="110" width="40" height="40" as="geometry" />
        </mxCell>
        <mxCell id="oDHyd6VB_Pj6hhUdVJWZ-18" value="&lt;div&gt;Inicio&amp;nbsp;&lt;/div&gt;" style="ellipse;whiteSpace=wrap;html=1;fillColor=#b1ddf0;strokeColor=#10739e;" parent="1" vertex="1">
          <mxGeometry x="5420" y="-390" width="120" height="80" as="geometry" />
        </mxCell>
        <mxCell id="XiHjJ64zcWDuWPJu7frB-2" value="definir =0" style="shape=parallelogram;perimeter=parallelogramPerimeter;whiteSpace=wrap;html=1;fixedSize=1;" vertex="1" parent="1">
          <mxGeometry x="5415" y="-270" width="130" height="60" as="geometry" />
        </mxCell>
        <mxCell id="XiHjJ64zcWDuWPJu7frB-3" value="contador" style="rhombus;whiteSpace=wrap;html=1;" vertex="1" parent="1">
          <mxGeometry x="5440" y="-160" width="80" height="80" as="geometry" />
        </mxCell>
        <mxCell id="XiHjJ64zcWDuWPJu7frB-4" value="dizer o numero atual" style="shape=hexagon;perimeter=hexagonPerimeter2;whiteSpace=wrap;html=1;fixedSize=1;" vertex="1" parent="1">
          <mxGeometry x="5420" y="-30" width="120" height="80" as="geometry" />
        </mxCell>
        <mxCell id="XiHjJ64zcWDuWPJu7frB-5" value="acrescentar mais 2" style="rounded=1;whiteSpace=wrap;html=1;" vertex="1" parent="1">
          <mxGeometry x="5420" y="110" width="120" height="60" as="geometry" />
        </mxCell>
        <mxCell id="XiHjJ64zcWDuWPJu7frB-6" value="fim" style="ellipse;whiteSpace=wrap;html=1;aspect=fixed;" vertex="1" parent="1">
          <mxGeometry x="5440" y="240" width="80" height="80" as="geometry" />
        </mxCell>
        <mxCell id="XiHjJ64zcWDuWPJu7frB-19" style="edgeStyle=orthogonalEdgeStyle;rounded=0;orthogonalLoop=1;jettySize=auto;html=1;" edge="1" parent="1" source="XiHjJ64zcWDuWPJu7frB-7" target="XiHjJ64zcWDuWPJu7frB-6">
          <mxGeometry relative="1" as="geometry" />
        </mxCell>
        <mxCell id="XiHjJ64zcWDuWPJu7frB-7" value="NÃO" style="text;html=1;align=center;verticalAlign=middle;resizable=0;points=[];autosize=1;strokeColor=none;fillColor=none;" vertex="1" parent="1">
          <mxGeometry x="5620" y="-130" width="50" height="30" as="geometry" />
        </mxCell>
        <mxCell id="XiHjJ64zcWDuWPJu7frB-16" style="edgeStyle=orthogonalEdgeStyle;rounded=0;orthogonalLoop=1;jettySize=auto;html=1;entryX=0.8;entryY=0.333;entryDx=0;entryDy=0;entryPerimeter=0;" edge="1" parent="1" source="XiHjJ64zcWDuWPJu7frB-3" target="XiHjJ64zcWDuWPJu7frB-7">
          <mxGeometry relative="1" as="geometry" />
        </mxCell>
      </root>
    </mxGraphModel>
  </diagram>
</mxfile>
